<svg width="23" height="15" viewBox="0 0 23 15" fill="none" xmlns="http://www.w3.org/2000/svg">
<g clip-path="url(#clip0_74_709)">
<path fill-rule="evenodd" clip-rule="evenodd" d="M0.0493371 7.49996C0.0493371 7.71588 0.135507 7.92297 0.28889 8.07565C0.442274 8.22833 0.650308 8.31411 0.867225 8.31411L20.1579 8.31411L15.0101 13.4367C14.8566 13.5896 14.7703 13.7969 14.7703 14.0131C14.7703 14.2293 14.8566 14.4367 15.0101 14.5895C15.1637 14.7424 15.372 14.8283 15.5892 14.8283C15.8064 14.8283 16.0147 14.7424 16.1683 14.5895L22.7114 8.07638C22.7875 8.00075 22.848 7.91091 22.8892 7.812C22.9304 7.71308 22.9517 7.60705 22.9517 7.49996C22.9517 7.39287 22.9304 7.28684 22.8892 7.18793C22.848 7.08902 22.7875 6.99917 22.7114 6.92355L16.1683 0.410389C16.0922 0.334693 16.002 0.274648 15.9026 0.233682C15.8032 0.192716 15.6967 0.171631 15.5892 0.171631C15.372 0.171631 15.1637 0.257514 15.0101 0.410389C14.8566 0.563264 14.7703 0.770606 14.7703 0.986804C14.7703 1.203 14.8566 1.41034 15.0101 1.56322L20.1579 6.68582L0.867225 6.68582C0.650308 6.68582 0.442274 6.77159 0.288891 6.92427C0.135507 7.07696 0.0493371 7.28404 0.0493371 7.49996Z" fill="white"/>
</g>
<defs>
<clipPath id="clip0_74_709">
<rect width="15" height="23" fill="white" transform="translate(23) rotate(90)"/>
</clipPath>
</defs>
</svg>
