<svg width="28" height="19" viewBox="0 0 28 19" fill="none" xmlns="http://www.w3.org/2000/svg">
<g clip-path="url(#clip0_154_851)">
<path d="M11.4124 0.0220938C4.94291 0.798463 0.629883 4.24898 0.629883 11.4951C0.629883 16.6708 3.47648 19 6.58186 19C9.60098 19 11.7575 16.7572 11.7575 13.9967C11.7575 11.1501 9.68723 9.33852 7.44446 9.33852C7.01315 9.33852 6.75438 9.42478 6.4956 9.42478C6.15056 9.42478 5.80551 9.07973 5.80551 8.56215C5.80551 6.49184 7.44446 4.68031 11.8437 3.47262C12.9651 3.12757 13.3964 2.60998 13.3964 1.74736C13.3964 0.712196 12.7927 -0.150436 11.4124 0.0220938ZM25.3866 0.0220938C18.9172 0.798463 14.6041 4.24898 14.6041 11.4951C14.6041 16.6708 17.4507 19 20.556 19C23.5751 19 25.7317 16.7572 25.7317 13.9967C25.7317 11.1501 23.6614 9.33852 21.4186 9.33852C20.9874 9.33852 20.7286 9.42478 20.4698 9.42478C20.1247 9.42478 19.7797 9.07973 19.7797 8.56215C19.7797 6.49184 21.4186 4.68031 25.818 3.47262C26.9394 3.12757 27.3706 2.60998 27.3706 1.74736C27.3706 0.712196 26.7668 -0.150436 25.3866 0.0220938Z" fill="url(#paint0_linear_154_851)"/>
</g>
<defs>
<linearGradient id="paint0_linear_154_851" x1="0.629883" y1="0" x2="18.5359" y2="12.5775" gradientUnits="userSpaceOnUse">
<stop stop-color="#C98200"/>
<stop offset="1" stop-color="#FCF8A8"/>
</linearGradient>
<clipPath id="clip0_154_851">
<rect width="26.7407" height="19" fill="white" transform="translate(0.629883)"/>
</clipPath>
</defs>
</svg>
