<svg width="38" height="37" viewBox="0 0 38 37" fill="none" xmlns="http://www.w3.org/2000/svg">
<circle cx="18.6289" cy="18.5" r="18.25" stroke="white" stroke-opacity="0.2" stroke-width="0.5"/>
<path fill-rule="evenodd" clip-rule="evenodd" d="M14.7948 9.25612C15.7865 9.21046 16.1027 9.20032 18.6288 9.20032C21.155 9.20032 21.4712 9.21131 22.462 9.25612C23.4529 9.30092 24.1292 9.45902 24.721 9.68813C25.3407 9.92231 25.9029 10.2884 26.3679 10.7618C26.8413 11.226 27.2066 11.7873 27.4399 12.4079C27.6699 12.9997 27.8271 13.676 27.8728 14.6652C27.9184 15.6586 27.9286 15.9747 27.9286 18.5C27.9286 21.0262 27.9176 21.3424 27.8728 22.3341C27.828 23.3232 27.6699 23.9996 27.4399 24.5914C27.2066 25.212 26.8407 25.7743 26.3679 26.2391C25.9029 26.7126 25.3407 27.0778 24.721 27.3111C24.1292 27.5411 23.4529 27.6983 22.4637 27.744C21.4712 27.7896 21.155 27.7998 18.6288 27.7998C16.1027 27.7998 15.7865 27.7888 14.7948 27.744C13.8057 27.6992 13.1293 27.5411 12.5375 27.3111C11.9169 27.0778 11.3546 26.7119 10.8898 26.2391C10.4166 25.7747 10.0505 25.2127 9.81691 24.5922C9.5878 24.0004 9.43055 23.3241 9.3849 22.3349C9.33925 21.3415 9.3291 21.0253 9.3291 18.5C9.3291 15.9739 9.34009 15.6577 9.3849 14.6669C9.42971 13.676 9.5878 12.9997 9.81691 12.4079C10.0509 11.7874 10.4173 11.2254 10.8906 10.761C11.3548 10.288 11.9165 9.92184 12.5367 9.68813C13.1285 9.45902 13.8048 9.30177 14.794 9.25612H14.7948ZM22.3868 10.9301C21.4061 10.8853 21.1119 10.876 18.6288 10.876C16.1458 10.876 15.8516 10.8853 14.8709 10.9301C13.9637 10.9715 13.4717 11.1228 13.1437 11.2505C12.71 11.4196 12.3997 11.6199 12.0742 11.9454C11.7657 12.2456 11.5282 12.611 11.3793 13.0149C11.2516 13.3429 11.1003 13.835 11.0589 14.7421C11.014 15.7228 11.0047 16.017 11.0047 18.5C11.0047 20.9831 11.014 21.2773 11.0589 22.258C11.1003 23.1651 11.2516 23.6572 11.3793 23.9852C11.5281 24.3885 11.7656 24.7545 12.0742 25.0547C12.3743 25.3633 12.7404 25.6008 13.1437 25.7496C13.4717 25.8773 13.9637 26.0286 14.8709 26.07C15.8516 26.1148 16.145 26.1241 18.6288 26.1241C21.1127 26.1241 21.4061 26.1148 22.3868 26.07C23.2939 26.0286 23.786 25.8773 24.114 25.7496C24.5477 25.5805 24.858 25.3802 25.1835 25.0547C25.492 24.7545 25.7296 24.3885 25.8784 23.9852C26.0061 23.6572 26.1574 23.1651 26.1988 22.258C26.2436 21.2773 26.2529 20.9831 26.2529 18.5C26.2529 16.017 26.2436 15.7228 26.1988 14.7421C26.1574 13.835 26.0061 13.3429 25.8784 13.0149C25.7093 12.5812 25.5089 12.2709 25.1835 11.9454C24.8833 11.6369 24.5178 11.3995 24.114 11.2505C23.786 11.1228 23.2939 10.9715 22.3868 10.9301ZM17.441 21.3669C18.1044 21.643 18.843 21.6803 19.5308 21.4723C20.2186 21.2644 20.8129 20.8241 21.2121 20.2266C21.6114 19.6292 21.7908 18.9117 21.7198 18.1966C21.6487 17.4816 21.3317 16.8134 20.8227 16.3062C20.4983 15.9819 20.106 15.7336 19.6741 15.5792C19.2422 15.4248 18.7814 15.368 18.3249 15.4131C17.8684 15.4581 17.4276 15.6038 17.0342 15.8396C16.6408 16.0754 16.3045 16.3956 16.0497 16.7769C15.7948 17.1583 15.6277 17.5915 15.5604 18.0452C15.493 18.4989 15.5271 18.9619 15.6601 19.4009C15.7932 19.8398 16.0219 20.2438 16.3299 20.5838C16.6378 20.9238 17.0173 21.1912 17.441 21.3669ZM15.2488 15.12C15.6927 14.6761 16.2196 14.324 16.7996 14.0838C17.3795 13.8436 18.0011 13.72 18.6288 13.72C19.2566 13.72 19.8781 13.8436 20.4581 14.0838C21.038 14.324 21.565 14.6761 22.0089 15.12C22.4527 15.5639 22.8048 16.0908 23.0451 16.6708C23.2853 17.2507 23.4089 17.8723 23.4089 18.5C23.4089 19.1278 23.2853 19.7494 23.0451 20.3293C22.8048 20.9093 22.4527 21.4362 22.0089 21.8801C21.1124 22.7765 19.8966 23.2801 18.6288 23.2801C17.3611 23.2801 16.1452 22.7765 15.2488 21.8801C14.3524 20.9836 13.8487 19.7678 13.8487 18.5C13.8487 17.2323 14.3524 16.0165 15.2488 15.12ZM24.4691 14.4318C24.5791 14.3281 24.6671 14.2033 24.728 14.0649C24.7889 13.9265 24.8214 13.7773 24.8237 13.6261C24.8259 13.4749 24.7977 13.3248 24.7409 13.1847C24.684 13.0445 24.5996 12.9173 24.4927 12.8103C24.3858 12.7034 24.2585 12.619 24.1184 12.5622C23.9783 12.5053 23.8282 12.4772 23.677 12.4794C23.5258 12.4816 23.3765 12.5141 23.2381 12.575C23.0997 12.6359 22.975 12.724 22.8712 12.834C22.6694 13.0479 22.5589 13.332 22.5632 13.6261C22.5675 13.9201 22.6862 14.2009 22.8942 14.4089C23.1021 14.6168 23.3829 14.7355 23.677 14.7398C23.971 14.7441 24.2551 14.6336 24.4691 14.4318Z" fill="url(#paint0_linear_13_85)"/>
<defs>
<linearGradient id="paint0_linear_13_85" x1="10.9817" y1="9.20032" x2="25.7251" y2="24.3326" gradientUnits="userSpaceOnUse">
<stop stop-color="#FCF8A8"/>
<stop offset="1" stop-color="#C98200"/>
</linearGradient>
</defs>
</svg>
