<svg width="43" height="43" viewBox="0 0 43 43" fill="none" xmlns="http://www.w3.org/2000/svg">
<circle cx="21.5" cy="21.5" r="21" fill="url(#paint0_linear_225_72)" stroke="black"/>
<path fill-rule="evenodd" clip-rule="evenodd" d="M17.0444 10.757C18.1969 10.704 18.5644 10.6922 21.5002 10.6922C24.436 10.6922 24.8034 10.705 25.955 10.757C27.1065 10.8091 27.8925 10.9929 28.5803 11.2591C29.3005 11.5313 29.9538 11.9567 30.4942 12.5069C31.0444 13.0463 31.4689 13.6987 31.7401 14.4199C32.0073 15.1077 32.1901 15.8937 32.2431 17.0433C32.2962 18.1977 32.308 18.5652 32.308 21.5C32.308 24.4358 32.2952 24.8033 32.2431 25.9558C32.1911 27.1053 32.0073 27.8913 31.7401 28.5791C31.4689 29.3004 31.0437 29.9539 30.4942 30.494C29.9538 31.0443 29.3005 31.4687 28.5803 31.7399C27.8925 32.0071 27.1065 32.1899 25.9569 32.2429C24.8034 32.296 24.436 32.3078 21.5002 32.3078C18.5644 32.3078 18.1969 32.295 17.0444 32.2429C15.8949 32.1909 15.1088 32.0071 14.4211 31.7399C13.6998 31.4687 13.0463 31.0435 12.5061 30.494C11.9563 29.9543 11.5308 29.3011 11.2593 28.5801C10.993 27.8923 10.8103 27.1063 10.7572 25.9567C10.7042 24.8023 10.6924 24.4348 10.6924 21.5C10.6924 18.5642 10.7052 18.1967 10.7572 17.0452C10.8093 15.8937 10.993 15.1077 11.2593 14.4199C11.5312 13.6988 11.957 13.0457 12.5071 12.5059C13.0466 11.9562 13.6994 11.5307 14.4201 11.2591C15.1079 10.9929 15.8939 10.8101 17.0434 10.757H17.0444ZM25.8675 12.7024C24.7278 12.6504 24.3859 12.6396 21.5002 12.6396C18.6145 12.6396 18.2726 12.6504 17.1328 12.7024C16.0786 12.7506 15.5068 12.9265 15.1255 13.0748C14.6215 13.2713 14.2609 13.5042 13.8826 13.8825C13.5241 14.2313 13.2481 14.656 13.075 15.1254C12.9266 15.5066 12.7508 16.0784 12.7026 17.1327C12.6506 18.2724 12.6398 18.6143 12.6398 21.5C12.6398 24.3857 12.6506 24.7276 12.7026 25.8673C12.7508 26.9216 12.9266 27.4934 13.075 27.8746C13.2479 28.3433 13.524 28.7687 13.8826 29.1175C14.2314 29.4761 14.6569 29.7522 15.1255 29.9252C15.5068 30.0735 16.0786 30.2494 17.1328 30.2975C18.2726 30.3496 18.6135 30.3604 21.5002 30.3604C24.3868 30.3604 24.7278 30.3496 25.8675 30.2975C26.9218 30.2494 27.4936 30.0735 27.8748 29.9252C28.3788 29.7287 28.7394 29.4958 29.1177 29.1175C29.4763 28.7687 29.7524 28.3433 29.9253 27.8746C30.0737 27.4934 30.2496 26.9216 30.2977 25.8673C30.3498 24.7276 30.3606 24.3857 30.3606 21.5C30.3606 18.6143 30.3498 18.2724 30.2977 17.1327C30.2496 16.0784 30.0737 15.5066 29.9253 15.1254C29.7288 14.6213 29.496 14.2607 29.1177 13.8825C28.7688 13.5239 28.3442 13.248 27.8748 13.0748C27.4936 12.9265 26.9218 12.7506 25.8675 12.7024ZM20.1197 24.8317C20.8907 25.1527 21.7491 25.196 22.5485 24.9543C23.3478 24.7126 24.0384 24.2009 24.5024 23.5066C24.9664 22.8122 25.1749 21.9784 25.0923 21.1474C25.0098 20.3164 24.6413 19.5398 24.0498 18.9503C23.6728 18.5735 23.2169 18.285 22.7149 18.1055C22.213 17.926 21.6775 17.8601 21.147 17.9124C20.6165 17.9647 20.1042 18.134 19.6469 18.4081C19.1897 18.6822 18.799 19.0542 18.5028 19.4975C18.2066 19.9407 18.0124 20.4441 17.9341 20.9714C17.8558 21.4987 17.8954 22.0367 18.0501 22.5469C18.2047 23.057 18.4705 23.5266 18.8284 23.9216C19.1863 24.3167 19.6273 24.6276 20.1197 24.8317ZM17.572 17.5719C18.0879 17.056 18.7003 16.6468 19.3743 16.3676C20.0483 16.0885 20.7707 15.9448 21.5002 15.9448C22.2297 15.9448 22.9521 16.0885 23.6261 16.3676C24.3001 16.6468 24.9125 17.056 25.4283 17.5719C25.9442 18.0877 26.3534 18.7001 26.6325 19.3741C26.9117 20.0481 27.0554 20.7705 27.0554 21.5C27.0554 22.2295 26.9117 22.9519 26.6325 23.6259C26.3534 24.2999 25.9442 24.9123 25.4283 25.4281C24.3865 26.4699 22.9735 27.0552 21.5002 27.0552C20.0268 27.0552 18.6138 26.4699 17.572 25.4281C16.5302 24.3863 15.9449 22.9733 15.9449 21.5C15.9449 20.0267 16.5302 18.6137 17.572 17.5719ZM28.2875 16.7721C28.4153 16.6515 28.5176 16.5065 28.5884 16.3456C28.6592 16.1848 28.697 16.0114 28.6996 15.8357C28.7021 15.6599 28.6694 15.4855 28.6033 15.3227C28.5373 15.1598 28.4392 15.0119 28.3149 14.8876C28.1907 14.7634 28.0428 14.6653 27.8799 14.5992C27.7171 14.5332 27.5426 14.5004 27.3669 14.503C27.1912 14.5056 27.0178 14.5434 26.8569 14.6141C26.6961 14.6849 26.5511 14.7873 26.4305 14.9151C26.196 15.1637 26.0676 15.4939 26.0726 15.8357C26.0775 16.1774 26.2155 16.5037 26.4572 16.7454C26.6988 16.9871 27.0252 17.125 27.3669 17.13C27.7086 17.135 28.0389 17.0066 28.2875 16.7721Z" fill="black"/>
<defs>
<linearGradient id="paint0_linear_225_72" x1="3.82056" y1="2.33319e-07" x2="37.9059" y2="34.9843" gradientUnits="userSpaceOnUse">
<stop stop-color="#FCF8A8"/>
<stop offset="1" stop-color="#C98200"/>
</linearGradient>
</defs>
</svg>
