<svg width="22" height="24" viewBox="0 0 22 24" fill="none" xmlns="http://www.w3.org/2000/svg">
<path d="M20.5692 4.34449C18.9326 3.90769 17.3338 3.34013 15.7881 2.64726C14.2674 1.9876 12.7994 1.21256 11.397 0.32893L10.9998 0.083374L10.6098 0.336152C9.20734 1.21978 7.73935 1.99482 6.21867 2.65448C4.67044 3.34525 3.06917 3.9104 1.43034 4.34449L0.888672 4.48171V10.505C0.888672 20.1756 10.6603 23.7939 10.7542 23.83L10.9998 23.9167L11.2453 23.83C11.3464 23.83 21.1109 20.1828 21.1109 10.505V4.48171L20.5692 4.34449ZM17.2687 9.14726L9.20145 16.9834L4.637 12.4117C4.44546 12.2202 4.33785 11.9604 4.33785 11.6895C4.33785 11.4186 4.44546 11.1588 4.637 10.9673C4.82855 10.7757 5.08834 10.6681 5.35923 10.6681C5.63011 10.6681 5.8899 10.7757 6.08145 10.9673L9.22312 14.1667L15.8603 7.66671C15.9552 7.57186 16.0678 7.49663 16.1917 7.4453C16.3156 7.39397 16.4484 7.36755 16.5826 7.36755C16.7167 7.36755 16.8495 7.39397 16.9734 7.4453C17.0973 7.49663 17.2099 7.57186 17.3048 7.66671C17.3996 7.76155 17.4749 7.87415 17.5262 7.99807C17.5775 8.12198 17.6039 8.2548 17.6039 8.38893C17.6039 8.52306 17.5775 8.65587 17.5262 8.77979C17.4749 8.90371 17.3996 9.01631 17.3048 9.11115L17.2687 9.14726Z" fill="url(#paint0_linear_291_541)"/>
<defs>
<linearGradient id="paint0_linear_291_541" x1="0.888672" y1="0.083374" x2="18.036" y2="7.34469" gradientUnits="userSpaceOnUse">
<stop stop-color="#C98200"/>
<stop offset="1" stop-color="#FCF8A8"/>
</linearGradient>
</defs>
</svg>
