<svg width="38" height="37" viewBox="0 0 38 37" fill="none" xmlns="http://www.w3.org/2000/svg">
<circle cx="18.5645" cy="18.5" r="18.25" stroke="white" stroke-opacity="0.2" stroke-width="0.5"/>
<g clip-path="url(#clip0_13_89)">
<path d="M28.4078 12.5288C27.7018 12.8416 26.9435 13.053 26.1462 13.1485C26.9688 12.6563 27.5843 11.8816 27.8777 10.969C27.1048 11.4281 26.259 11.7512 25.3769 11.9243C24.7837 11.291 23.998 10.8712 23.1419 10.7301C22.2857 10.5891 21.4068 10.7346 20.6418 11.1442C19.8768 11.5538 19.2685 12.2045 18.9112 12.9952C18.5539 13.786 18.4676 14.6726 18.6659 15.5174C17.0999 15.4388 15.5679 15.0318 14.1694 14.3227C12.7709 13.6137 11.5371 12.6186 10.5481 11.4019C10.2099 11.9852 10.0154 12.6616 10.0154 13.3819C10.0151 14.0303 10.1747 14.6688 10.4803 15.2407C10.7859 15.8127 11.2279 16.3003 11.7672 16.6604C11.1418 16.6405 10.5302 16.4716 9.9833 16.1676V16.2183C9.98324 17.1277 10.2978 18.0092 10.8737 18.7131C11.4496 19.4171 12.2512 19.9001 13.1427 20.0802C12.5625 20.2372 11.9543 20.2603 11.3639 20.1478C11.6154 20.9304 12.1053 21.6147 12.7651 22.1049C13.4248 22.5952 14.2214 22.8669 15.0432 22.882C13.6481 23.9771 11.9252 24.5712 10.1515 24.5686C9.83737 24.5687 9.52345 24.5503 9.21143 24.5136C11.0117 25.6712 13.1075 26.2855 15.2478 26.2831C22.4931 26.2831 26.454 20.2823 26.454 15.0778C26.454 14.9087 26.4497 14.7379 26.4421 14.5688C27.2126 14.0117 27.8776 13.3217 28.4061 12.5314L28.4078 12.5288Z" fill="url(#paint0_linear_13_89)"/>
</g>
<defs>
<linearGradient id="paint0_linear_13_89" x1="10.917" y1="10.6777" x2="22.9625" y2="25.8858" gradientUnits="userSpaceOnUse">
<stop stop-color="#FCF8A8"/>
<stop offset="1" stop-color="#C98200"/>
</linearGradient>
<clipPath id="clip0_13_89">
<rect width="20.2903" height="20.2903" fill="white" transform="translate(8.41943 8.35486)"/>
</clipPath>
</defs>
</svg>
