<svg width="43" height="43" viewBox="0 0 43 43" fill="none" xmlns="http://www.w3.org/2000/svg">
<circle cx="21.5" cy="21.5" r="21" fill="url(#paint0_linear_225_76)" stroke="black"/>
<path d="M32.9401 14.5604C32.1197 14.9239 31.2384 15.1695 30.3119 15.2806C31.2679 14.7085 31.9831 13.8082 32.3241 12.7476C31.4259 13.2811 30.4429 13.6566 29.4178 13.8579C28.7284 13.1218 27.8153 12.634 26.8203 12.47C25.8252 12.3061 24.8039 12.4753 23.9149 12.9512C23.0258 13.4272 22.3188 14.1834 21.9035 15.1024C21.4883 16.0214 21.3881 17.0518 21.6185 18.0336C19.7985 17.9422 18.0181 17.4692 16.3928 16.6452C14.7675 15.8212 13.3336 14.6647 12.1842 13.2507C11.7912 13.9286 11.5652 14.7146 11.5652 15.5517C11.5648 16.3053 11.7504 17.0474 12.1055 17.7121C12.4606 18.3767 12.9743 18.9435 13.601 19.362C12.8742 19.3389 12.1635 19.1425 11.5279 18.7892V18.8481C11.5278 19.9051 11.8934 20.9295 12.5627 21.7476C13.2319 22.5656 14.1636 23.127 15.1996 23.3363C14.5254 23.5188 13.8185 23.5457 13.1324 23.4149C13.4247 24.3244 13.994 25.1196 14.7608 25.6894C15.5275 26.2592 16.4532 26.5749 17.4083 26.5924C15.787 27.8652 13.7847 28.5556 11.7234 28.5525C11.3583 28.5526 10.9935 28.5313 10.6309 28.4887C12.7231 29.8339 15.1587 30.5479 17.6461 30.5451C26.0664 30.5451 30.6695 23.5711 30.6695 17.5227C30.6695 17.3262 30.6646 17.1277 30.6557 16.9312C31.5511 16.2837 32.324 15.4819 32.9381 14.5633L32.9401 14.5604Z" fill="black"/>
<defs>
<linearGradient id="paint0_linear_225_76" x1="3.82056" y1="2.33319e-07" x2="37.9059" y2="34.9843" gradientUnits="userSpaceOnUse">
<stop stop-color="#FCF8A8"/>
<stop offset="1" stop-color="#C98200"/>
</linearGradient>
</defs>
</svg>
