<svg width="43" height="43" viewBox="0 0 43 43" fill="none" xmlns="http://www.w3.org/2000/svg">
<circle cx="21.5" cy="21.5" r="21" fill="url(#paint0_linear_225_80)" stroke="black"/>
<g clip-path="url(#clip0_225_80)">
<path d="M31.4692 16.7379C31.3514 16.3177 31.1219 15.9372 30.8051 15.6369C30.4794 15.3274 30.0802 15.1061 29.6452 14.9937C28.0171 14.5645 21.4943 14.5645 21.4943 14.5645C18.775 14.5336 16.0563 14.6697 13.3537 14.972C12.9187 15.0927 12.5202 15.319 12.1938 15.6309C11.873 15.9395 11.6407 16.3201 11.5193 16.7371C11.2277 18.3077 11.0861 19.9026 11.0962 21.5C11.0858 23.0961 11.2271 24.6903 11.5193 26.263C11.6381 26.6782 11.8695 27.0571 12.1912 27.3631C12.5128 27.6691 12.9133 27.8902 13.3537 28.0072C15.0035 28.4355 21.4943 28.4355 21.4943 28.4355C24.217 28.4665 26.9391 28.3304 29.6452 28.028C30.0802 27.9157 30.4794 27.6943 30.8051 27.3848C31.1218 27.0846 31.351 26.704 31.4684 26.2838C31.7675 24.7137 31.913 23.1182 31.9027 21.52C31.9252 19.9149 31.7799 18.3119 31.4692 16.7371V16.7379ZM19.4206 24.4684V18.5325L24.8476 21.5009L19.4206 24.4684Z" fill="black"/>
</g>
<defs>
<linearGradient id="paint0_linear_225_80" x1="3.82056" y1="2.33319e-07" x2="37.9059" y2="34.9843" gradientUnits="userSpaceOnUse">
<stop stop-color="#FCF8A8"/>
<stop offset="1" stop-color="#C98200"/>
</linearGradient>
<clipPath id="clip0_225_80">
<rect width="20.8065" height="20.8065" fill="white" transform="translate(11.0967 11.0968)"/>
</clipPath>
</defs>
</svg>
